<?xml version="1.0" encoding="utf-8"?><svg xmlns="http://www.w3.org/2000/svg" xmlns:xlink="http://www.w3.org/1999/xlink"><symbol viewBox="0 0 16 16" id="arrow" xmlns="http://www.w3.org/2000/svg"><path d="M12.172 7L6.808 1.636 8.222.222 16 8l-7.778 7.778-1.414-1.414L12.172 9H0V7h12.172z"/></symbol><symbol viewBox="0 0 20 21" id="buy" xmlns="http://www.w3.org/2000/svg"><path clip-rule="evenodd" d="M5.422 17.82a.766.766 0 010 1.53.764.764 0 110-1.53zm11.253 0a.766.766 0 11-.002 1.532.766.766 0 01.002-1.532z"/><path d="M.75 1.25l2.08.36.963 11.473a1.802 1.802 0 001.797 1.653h10.912c.896 0 1.656-.658 1.785-1.546l.949-6.558a1.34 1.34 0 00-1.327-1.533H3.164m8.961 3.696h2.773"/></symbol><symbol viewBox="0 0 24 24" id="profile" xmlns="http://www.w3.org/2000/svg"><circle cx="11.579" cy="7.278" r="4.778"/><path clip-rule="evenodd" d="M4 18.701a2.214 2.214 0 01.22-.97c.457-.915 1.748-1.4 2.819-1.62a16.793 16.793 0 012.343-.33 25.059 25.059 0 014.385 0c.787.056 1.57.166 2.343.33 1.07.22 2.361.659 2.82 1.62a2.27 2.27 0 010 1.95c-.459.96-1.75 1.4-2.82 1.61-.772.172-1.555.286-2.343.34-1.188.1-2.38.118-3.57.054-.275 0-.54 0-.815-.055a15.43 15.43 0 01-2.334-.338c-1.08-.21-2.361-.65-2.828-1.611A2.28 2.28 0 014 18.7z"/></symbol></svg>