<svg width="128" height="128" viewBox="0 0 128 128" fill="none" xmlns="http://www.w3.org/2000/svg">
<path fill-rule="evenodd" clip-rule="evenodd" d="M81.4131 89.8838C61.791 105.321 33.2818 103.992 15.1888 85.8995C-4.33737 66.3733 -4.33736 34.7151 15.1888 15.1888C34.7151 -4.33737 66.3733 -4.33737 85.8995 15.1888C103.992 33.2818 105.321 61.791 89.8838 81.4131C89.9717 81.4913 90.0578 81.5725 90.1421 81.6568L125.497 117.012C127.841 119.355 127.841 123.154 125.497 125.497C123.154 127.841 119.355 127.841 117.012 125.497L81.6568 90.1421C81.5725 90.0578 81.4913 89.9717 81.4131 89.8838ZM77.4142 77.4142C62.5743 92.2542 38.5141 92.2542 23.6741 77.4142C8.83421 62.5743 8.8342 38.5141 23.6741 23.6741C38.5141 8.83421 62.5743 8.83421 77.4142 23.6741C92.2542 38.5141 92.2542 62.5743 77.4142 77.4142Z" fill="black"/>
</svg>
